<svg xmlns="http://www.w3.org/2000/svg" version="1.1" dispaly="none" style="position:absolute;width:0;height:0">
  
  
    <symbol id="arrow" width="24" height="24" viewBox="0 0 24 24" fill="none">    
    <path  d="M6 12h12.5m0 0-6-6m6 6-6 6"  stroke-linecap="round" stroke-linejoin="round"/>    
    </symbol>   

    <symbol id="insta"  viewBox="0 0 24 24" fill="none">
        <path d="M12 16a4 4 0 1 0 0-8 4 4 0 0 0 0 8Z" stroke-width="1.5" stroke-linecap="round" stroke-linejoin="round"/>
        <path d="M3 16V8a5 5 0 0 1 5-5h8a5 5 0 0 1 5 5v8a5 5 0 0 1-5 5H8a5 5 0 0 1-5-5Z"  stroke-width="1.5"/>
        <path d="m17.5 6.51.01-.011" stroke-width="1.5" stroke-linecap="round" stroke-linejoin="round"/>
    </symbol>

    <symbol id="telegram" viewBox="0 0 24 24" fill="none">
        <path d="M21 5 2 12.5l7 1M21 5l-2.5 15L9 13.5M21 5 9 13.5m0 0V19l3.249-3.277" stroke-width="1.5" stroke-linecap="round" stroke-linejoin="round"/>    
    </symbol>

    <symbol id="facebook" viewBox="0 0 24 24" fill="none">
        <path d="M17 2h-3a5 5 0 0 0-5 5v3H6v4h3v8h4v-8h3l1-4h-4V7a1 1 0 0 1 1-1h3V2Z"  stroke-width="1.5" stroke-linecap="round" stroke-linejoin="round"/>
    </symbol>

    <symbol id="x" viewBox="0 0 24 24" fill="none">
        <path d="M16.82 20.768 3.753 3.968A.6.6 0 0 1 4.227 3h2.48a.6.6 0 0 1 .473.232l13.067 16.8a.6.6 0 0 1-.474.968h-2.48a.6.6 0 0 1-.473-.232Z"  stroke-width="1.5"/><path d="M20 3 4 21"  stroke-width="1.5" stroke-linecap="round"/>
    </symbol>
  
    <symbol id="rating-snowflake" viewBox="0 0 14 16" fill="none">
       <path d="m11.196 9.882-.548-.317 1.468-.393-.243-.905-2.372.636-1.12-.646a1.408 1.408 0 0 0 0-.514l1.12-.646 2.372.636.243-.905-1.468-.393.548-.317 2.35-.14.346-1.957-1.867-.679-1.298 1.965-.547.316.393-1.468-.905-.242-.636 2.373-1.12.646a1.405 1.405 0 0 0-.444-.257V5.383l1.737-1.737-.662-.663-1.075 1.075v-.633l1.05-2.1L7 0 5.482 1.326l1.05 2.1v.632L5.456 2.983l-.663.663 1.737 1.737v1.292a1.405 1.405 0 0 0-.444.257l-1.12-.646-.635-2.373-.905.243.393 1.467-.548-.316-1.297-1.965-1.868.679.346 1.956 2.35.141.548.317-1.467.393.242.905L4.5 7.097l1.12.646a1.408 1.408 0 0 0 0 .514l-1.12.646-2.373-.636-.242.905 1.467.393-.547.317-2.35.14-.347 1.957 1.868.679 1.297-1.965.548-.316-.393 1.467.905.243.636-2.373 1.12-.646c.13.11.28.199.443.257v1.292l-1.737 1.737.663.663 1.074-1.075v.633l-1.05 2.1L7 16l1.518-1.326-1.05-2.1v-.632l1.075 1.075.662-.663-1.737-1.737V9.325c.165-.058.315-.146.444-.257l1.12.646.636 2.373.905-.242-.393-1.468.547.316 1.298 1.965 1.867-.679-.346-1.956-2.35-.141Z" fill="#FF4646"/>
    </symbol>
</svg> 