<svg xmlns="http://www.w3.org/2000/svg" version="1.1" dispaly="none" style="position:absolute;width:0;height:0">
  
  
    <symbol id="arrow" width="24" height="24" viewBox="0 0 24 24" fill="none">    
    <path  d="M6 12h12.5m0 0-6-6m6 6-6 6"  stroke-linecap="round" stroke-linejoin="round"/>    
    </symbol>   

    <symbol id="insta"  viewBox="0 0 24 24" fill="none">
        <path d="M12 16a4 4 0 1 0 0-8 4 4 0 0 0 0 8Z" stroke-width="1.5" stroke-linecap="round" stroke-linejoin="round"/>
        <path d="M3 16V8a5 5 0 0 1 5-5h8a5 5 0 0 1 5 5v8a5 5 0 0 1-5 5H8a5 5 0 0 1-5-5Z"  stroke-width="1.5"/>
        <path d="m17.5 6.51.01-.011" stroke-width="1.5" stroke-linecap="round" stroke-linejoin="round"/>
    </symbol>

    <symbol id="telegram" viewBox="0 0 24 24" fill="none">
        <path d="M21 5 2 12.5l7 1M21 5l-2.5 15L9 13.5M21 5 9 13.5m0 0V19l3.249-3.277" stroke-width="1.5" stroke-linecap="round" stroke-linejoin="round"/>    
    </symbol>

    <symbol id="facebook" viewBox="0 0 24 24" fill="none">
        <path d="M17 2h-3a5 5 0 0 0-5 5v3H6v4h3v8h4v-8h3l1-4h-4V7a1 1 0 0 1 1-1h3V2Z"  stroke-width="1.5" stroke-linecap="round" stroke-linejoin="round"/>
    </symbol>

    <symbol id="x" viewBox="0 0 24 24" fill="none">
        <path d="M16.82 20.768 3.753 3.968A.6.6 0 0 1 4.227 3h2.48a.6.6 0 0 1 .473.232l13.067 16.8a.6.6 0 0 1-.474.968h-2.48a.6.6 0 0 1-.473-.232Z"  stroke-width="1.5"/><path d="M20 3 4 21"  stroke-width="1.5" stroke-linecap="round"/>
    </symbol>
  
</svg> 