<svg xmlns="http://www.w3.org/2000/svg" xmlns:xlink="http://www.w3.org/1999/xlink" aria-hidden="true" overflow="hidden" style="position:absolute;width:0;height:0">
  <defs>
    <path id="reuse-0" stroke="var(--color4, #c1b6ad)" stroke-width=".533" d="M16 .267C24.689.267 31.733 7.311 31.733 16S24.689 31.733 16 31.733.267 24.689.267 16 7.311.267 16 .267z"/>
  </defs>
  <defs>

    <symbol id="arrow-right" viewBox="0 0 32 32">
    <use xlink:href="#reuse-0" stroke-width=".533"/>
      <path fill="currentColor" stroke-linejoin="miter" stroke-linecap="butt" stroke-miterlimit="4" stroke-width="0.5714" d="M11.429 0.286h9.143c6.154 0 11.143 4.989 11.143 11.143v9.143c0 6.154-4.989 11.143-11.143 11.143h-9.143c-6.154 0-11.143-4.989-11.143-11.143v-9.143c0-6.154 4.989-11.143 11.143-11.143z"></path>
      <path  stroke-linejoin="round" stroke-linecap="round" stroke-miterlimit="4" stroke-width="0.5714" d="M12.571 16h7.143M19.714 16l-3.429-3.429M19.714 16l-3.429 3.429"></path>
  </symbol>
   
  </defs>
</svg>
